<?xml version="1.0" encoding="UTF-8"?><svg id="Layer_2" xmlns="http://www.w3.org/2000/svg" viewBox="0 0 573.88 156.31"><defs><style>.cls-1{fill:#fff;}</style></defs><g id="Layer_1-2"><g><g><path class="cls-1" d="M199.42,66.17c0-2.01,1.63-3.65,3.65-3.65h7.94c2.01,0,3.65,1.63,3.65,3.65v25.84l4.99,3.34V33.85c0-2.01,1.63-3.65,3.65-3.65h7.94c2.01,0,3.65,1.63,3.65,3.65V105.53l4.99,3.34v-42.7c0-2.01,1.63-3.65,3.65-3.65h7.94c2.01,0,3.65,1.63,3.65,3.65v52.88l4.99,3.34v-28.23c0-2.01,1.63-3.65,3.65-3.65h7.94c2.02,0,3.65,1.63,3.65,3.65v29.81h52.48L240.93,20.1c-5.88-8.48-19.12-9.3-26.22-1.63l-42.07,45.48,26.78,17.89v-15.67h0Z"/><polygon class="cls-1" points="214.66 123.97 219.65 123.97 219.65 95.35 214.66 92.01 214.66 123.97"/><polygon class="cls-1" points="234.89 123.97 239.88 123.97 239.88 108.87 234.89 105.53 234.89 123.97"/><polygon class="cls-1" points="255.12 123.97 260.12 123.98 260.12 122.39 255.12 119.05 255.12 123.97"/><path class="cls-1" d="M182.83,90.51h7.94c2.02,0,3.65,1.63,3.65,3.65v29.81h4.99v-42.14l-26.78-17.89-44.89,48.52c3.87,1.07,6.87,3.27,8.99,6.09,.4-.12,.83-.21,1.31-.21,1.79,0,2.98,.9,3.62,2.1,.14-.01,.27-.04,.42-.04,2.46,0,3.84,1.69,4.13,3.57h32.96v-29.81c.02-2.01,1.65-3.65,3.66-3.65Z"/><path d="M234.89,105.53h0V33.85c0-2.01-1.63-3.65-3.65-3.65h-7.94c-2.01,0-3.65,1.63-3.65,3.65v61.5h0v28.62h15.24v-18.44h0Z"/><path d="M214.66,92.01h0v-25.84c0-2.01-1.63-3.65-3.65-3.65h-7.94c-2.01,0-3.65,1.63-3.65,3.65v15.66h0v42.14h15.24v-31.96h0Z"/><path d="M255.12,119.05h0v-52.88c0-2.01-1.63-3.65-3.65-3.65h-7.94c-2.01,0-3.65,1.63-3.65,3.65v42.7h0v15.1h15.24v-4.92h0Z"/><path d="M275.35,94.16c0-2.01-1.63-3.65-3.65-3.65h-7.94c-2.02,0-3.65,1.63-3.65,3.65v28.23h0v1.58h15.24v-29.81h0Z"/><path d="M194.42,123.97v-29.81c0-2.01-1.63-3.65-3.65-3.65h-7.94c-2.02,0-3.65,1.63-3.65,3.65v29.81h15.24Z"/></g><g><path class="cls-1" d="M570.52,32.66c2.4,0,4.02,2.45,3.08,4.66l-38.62,90.75c-4.12,10.36-9.22,17.65-15.29,21.89-6.07,4.23-13.4,6.35-21.97,6.35-4.68,0-9.3-.73-13.87-2.17-3.41-1.08-6.35-2.47-8.82-4.17-1.4-.96-1.88-2.8-1.11-4.31l6.46-12.57c.89-1.72,3.06-2.36,4.7-1.33,1.25,.78,2.6,1.45,4.03,2,2.62,1,5.21,1.5,7.77,1.5,3.56,0,6.46-.86,8.69-2.59s4.23-4.6,6.02-8.61l.33-.84-36.92-85.89c-.95-2.21,.67-4.67,3.08-4.67h19.58c1.35,0,2.58,.82,3.09,2.07l23.3,56.31c.4,.96,1.76,.96,2.16,0l23.46-56.32c.52-1.25,1.74-2.06,3.09-2.06h17.76Z"/><path class="cls-1" d="M166.22,115.73c.6,1.58-.05,3.36-1.53,4.17-2.03,1.12-4.34,2-6.93,2.66-3.73,.95-7.66,1.42-11.78,1.42-10.69,0-18.96-2.73-24.81-8.19s-8.77-13.48-8.77-24.06V54.8h-10.49c-1.86,0-3.38-1.51-3.38-3.38v-13.3c0-1.86,1.51-3.38,3.38-3.38h9.18c.73,0,1.32-.59,1.32-1.32V16.22c0-1.86,1.51-3.38,3.38-3.38h19.32c1.86,0,3.38,1.51,3.38,3.38v17.07c0,.8,.65,1.44,1.44,1.44h17.57c1.86,0,3.38,1.51,3.38,3.38v13.3c0,1.86-1.51,3.38-3.38,3.38h-19.01v36.59c0,3.79,.97,6.71,2.92,8.77,1.95,2.06,4.7,3.09,8.27,3.09,2.76,0,5.24-.5,7.45-1.5,1.75-.79,3.81,.09,4.5,1.88l4.59,12.11Z"/><path class="cls-1" d="M350.5,115.67c.61,1.61-.05,3.43-1.56,4.26-2.02,1.1-4.31,1.98-6.88,2.63-3.73,.95-7.66,1.42-11.78,1.42-10.69,0-18.96-2.73-24.81-8.19s-8.77-13.48-8.77-24.06V54.8h-10.42c-1.9,0-3.44-1.54-3.44-3.44v-13.16c0-1.9,1.54-3.44,3.44-3.44h9.13c.72,0,1.3-.58,1.3-1.3V16.31c0-1.9,1.54-3.44,3.44-3.44h19.18c1.9,0,3.44,1.54,3.44,3.44v17.15c0,.72,.58,1.3,1.3,1.3h17.65c1.9,0,3.44,1.54,3.44,3.44v13.16c0,1.9-1.54,3.44-3.44,3.44h-18.94v36.59c0,3.79,.97,6.71,2.92,8.77,1.95,2.06,4.7,3.09,8.27,3.09,2.73,0,5.19-.49,7.39-1.47,1.79-.8,3.89,.09,4.59,1.92l4.55,11.97Z"/><path class="cls-1" d="M365.24,65.07h40.55c1.86,0,3.37,1.51,3.37,3.37v14.15c0,1.86-1.51,3.37-3.37,3.37h-40.55c-1.86,0-3.37-1.51-3.37-3.37v-14.15c0-1.86,1.51-3.37,3.37-3.37Z"/><path class="cls-1" d="M433.84,0h19.15c1.91,0,3.46,1.55,3.46,3.46V120.52c0,1.91-1.55,3.46-3.46,3.46h-19.15c-1.91,0-3.46-1.55-3.46-3.46V3.46c0-1.91,1.55-3.46,3.46-3.46Z"/><path class="cls-1" d="M19.71,120.26c-7.31-2.12-13.39-4.79-18.23-8-1.37-.91-1.86-2.69-1.18-4.19l6.29-13.96c.83-1.85,3.1-2.57,4.82-1.5,4.24,2.65,9.07,4.85,14.49,6.6,6.82,2.2,13.65,3.3,20.47,3.3,7.59,0,13.21-1.13,16.84-3.38s5.45-5.25,5.45-9c0-2.75-1.07-5.04-3.22-6.85-2.15-1.82-4.9-3.27-8.25-4.38-3.36-1.1-7.9-2.31-13.62-3.63-8.81-2.09-16.01-4.18-21.63-6.27-5.61-2.09-10.43-5.45-14.45-10.07S1.46,48.14,1.46,40.44c0-6.71,1.82-12.79,5.45-18.24,3.63-5.45,9.11-9.77,16.43-12.96,7.32-3.19,16.26-4.79,26.83-4.79,7.37,0,14.58,.88,21.63,2.64,5.92,1.48,11.22,3.51,15.9,6.08,1.5,.82,2.13,2.65,1.49,4.23l-5.74,14.12c-.75,1.84-2.9,2.62-4.67,1.72-9.59-4.88-19.18-7.33-28.77-7.33-7.49,0-13.02,1.21-16.59,3.63-3.58,2.42-5.37,5.61-5.37,9.58s2.06,6.91,6.19,8.83c4.13,1.93,10.43,3.83,18.9,5.7,8.8,2.09,16.01,4.18,21.63,6.27,5.61,2.09,10.43,5.39,14.45,9.91,4.02,4.51,6.03,10.62,6.03,18.33,0,6.6-1.84,12.63-5.53,18.08-3.69,5.45-9.22,9.77-16.59,12.96-7.38,3.19-16.34,4.79-26.91,4.79-9.15,0-17.99-1.25-26.51-3.73Z"/></g><path class="cls-1" d="M199.42,81.83l-26.78-17.89,26.78,17.89Z"/></g></g></svg>